{
  "accessors": [
    {
      "bufferView": 3,
      "componentType": 5126,
      "count": 2426,
      "max": [
        1.8947880268096924,
        6.6867194175720215,
        1.1433734893798828
      ],
      "min": [
        -1.8947880268096924,
        0.5078601837158203,
        -0.43983328342437744
      ],
      "type": "VEC3"
    },
    {
      "bufferView": 3,
      "byteOffset": 29112,
      "componentType": 5126,
      "count": 2426,
      "max": [
        0.9993492364883423,
        0.9999808669090271,
        0.9999014139175415
      ],
      "min": [
        -0.9993492364883423,
        -0.9986414909362793,
        -0.9999014139175415
      ],
      "type": "VEC3"
    },
    {
      "bufferView": 2,
      "componentType": 5126,
      "count": 2426,
      "max": [
        0.9666436910629272,
        0.9502492547035217
      ],
      "min": [
        0.012526026926934719,
        0.040623635053634644
      ],
      "type": "VEC2"
    },
    {
      "bufferView": 1,
      "componentType": 5125,
      "count": 3366,
      "type": "SCALAR"
    },
    {
      "bufferView": 3,
      "byteOffset": 58224,
      "componentType": 5126,
      "count": 638,
      "max": [
        1.772716760635376,
        4.5981364250183105,
        0.7737682461738586
      ],
      "min": [
        -0.08551593124866486,
        1.528554916381836,
        -0.052720945328474045
      ],
      "type": "VEC3"
    },
    {
      "bufferView": 3,
      "byteOffset": 65880,
      "componentType": 5126,
      "count": 638,
      "max": [
        0.9425367116928101,
        0.9815598726272583,
        0.9899809956550598
      ],
      "min": [
        -0.9627549052238464,
        -0.955227255821228,
        -0.9845772981643677
      ],
      "type": "VEC3"
    },
    {
      "bufferView": 2,
      "byteOffset": 19408,
      "componentType": 5126,
      "count": 638,
      "max": [
        0.18248607218265533,
        0.8097295165061951
      ],
      "min": [
        0.06920479238033295,
        0.7980107665061951
      ],
      "type": "VEC2"
    },
    {
      "bufferView": 1,
      "byteOffset": 13464,
      "componentType": 5125,
      "count": 894,
      "type": "SCALAR"
    },
    {
      "bufferView": 3,
      "byteOffset": 73536,
      "componentType": 5126,
      "count": 638,
      "max": [
        -3.8295741081237793,
        2.987652063369751,
        -2.7416741847991943
      ],
      "min": [
        -4.94771671295166,
        -0.6260035037994385,
        -4.255579471588135
      ],
      "type": "VEC3"
    },
    {
      "bufferView": 3,
      "byteOffset": 81192,
      "componentType": 5126,
      "count": 638,
      "max": [
        0.9905463457107544,
        0.9510496854782104,
        0.9738787412643433
      ],
      "min": [
        -0.9586561918258667,
        -0.9998236298561096,
        -0.9784033894538879
      ],
      "type": "VEC3"
    },
    {
      "bufferView": 2,
      "byteOffset": 24512,
      "componentType": 5126,
      "count": 638,
      "max": [
        0.18248607218265533,
        0.8097295165061951
      ],
      "min": [
        0.06920479238033295,
        0.7980107665061951
      ],
      "type": "VEC2"
    },
    {
      "bufferView": 1,
      "byteOffset": 17040,
      "componentType": 5125,
      "count": 894,
      "type": "SCALAR"
    },
    {
      "bufferView": 3,
      "byteOffset": 88848,
      "componentType": 5126,
      "count": 638,
      "max": [
        0.8135809898376465,
        0.1765909194946289,
        1.0445939302444458
      ],
      "min": [
        -0.2914217710494995,
        -3.839632987976074,
        -0.15307818353176117
      ],
      "type": "VEC3"
    },
    {
      "bufferView": 3,
      "byteOffset": 96504,
      "componentType": 5126,
      "count": 638,
      "max": [
        0.9834712147712708,
        0.813847005367279,
        0.9998899698257446
      ],
      "min": [
        -0.9912852048873901,
        -0.8981822729110718,
        -0.9996635913848877
      ],
      "type": "VEC3"
    },
    {
      "bufferView": 2,
      "byteOffset": 29616,
      "componentType": 5126,
      "count": 638,
      "max": [
        0.18248607218265533,
        0.8097295165061951
      ],
      "min": [
        0.06920479238033295,
        0.7980107665061951
      ],
      "type": "VEC2"
    },
    {
      "bufferView": 1,
      "byteOffset": 20616,
      "componentType": 5125,
      "count": 894,
      "type": "SCALAR"
    },
    {
      "bufferView": 3,
      "byteOffset": 104160,
      "componentType": 5126,
      "count": 638,
      "max": [
        0.8135809898376465,
        0.1765909194946289,
        1.0445939302444458
      ],
      "min": [
        -0.2914217710494995,
        -3.839632987976074,
        -0.15307818353176117
      ],
      "type": "VEC3"
    },
    {
      "bufferView": 3,
      "byteOffset": 111816,
      "componentType": 5126,
      "count": 638,
      "max": [
        0.9834712147712708,
        0.813847005367279,
        0.9998899698257446
      ],
      "min": [
        -0.9912852048873901,
        -0.8981822729110718,
        -0.9996635913848877
      ],
      "type": "VEC3"
    },
    {
      "bufferView": 2,
      "byteOffset": 34720,
      "componentType": 5126,
      "count": 638,
      "max": [
        0.18248607218265533,
        0.8097295165061951
      ],
      "min": [
        0.06920479238033295,
        0.7980107665061951
      ],
      "type": "VEC2"
    },
    {
      "bufferView": 1,
      "byteOffset": 24192,
      "componentType": 5125,
      "count": 894,
      "type": "SCALAR"
    },
    {
      "bufferView": 3,
      "byteOffset": 119472,
      "componentType": 5126,
      "count": 638,
      "max": [
        0.8135809898376465,
        0.1765909194946289,
        1.0445939302444458
      ],
      "min": [
        -0.2914217710494995,
        -3.839632987976074,
        -0.15307818353176117
      ],
      "type": "VEC3"
    },
    {
      "bufferView": 3,
      "byteOffset": 127128,
      "componentType": 5126,
      "count": 638,
      "max": [
        0.9834712147712708,
        0.813847005367279,
        0.9998899698257446
      ],
      "min": [
        -0.9912852048873901,
        -0.8981822729110718,
        -0.9996635913848877
      ],
      "type": "VEC3"
    },
    {
      "bufferView": 2,
      "byteOffset": 39824,
      "componentType": 5126,
      "count": 638,
      "max": [
        0.18248607218265533,
        0.8097295165061951
      ],
      "min": [
        0.06920479238033295,
        0.7980107665061951
      ],
      "type": "VEC2"
    },
    {
      "bufferView": 1,
      "byteOffset": 27768,
      "componentType": 5125,
      "count": 894,
      "type": "SCALAR"
    },
    {
      "bufferView": 3,
      "byteOffset": 134784,
      "componentType": 5126,
      "count": 638,
      "max": [
        0.8135809898376465,
        0.1765909194946289,
        1.0445939302444458
      ],
      "min": [
        -0.2914217710494995,
        -3.839632987976074,
        -0.15307818353176117
      ],
      "type": "VEC3"
    },
    {
      "bufferView": 3,
      "byteOffset": 142440,
      "componentType": 5126,
      "count": 638,
      "max": [
        0.9834712147712708,
        0.813847005367279,
        0.9998899698257446
      ],
      "min": [
        -0.9912852048873901,
        -0.8981822729110718,
        -0.9996635913848877
      ],
      "type": "VEC3"
    },
    {
      "bufferView": 2,
      "byteOffset": 44928,
      "componentType": 5126,
      "count": 638,
      "max": [
        0.18248607218265533,
        0.8097295165061951
      ],
      "min": [
        0.06920479238033295,
        0.7980107665061951
      ],
      "type": "VEC2"
    },
    {
      "bufferView": 1,
      "byteOffset": 31344,
      "componentType": 5125,
      "count": 894,
      "type": "SCALAR"
    },
    {
      "bufferView": 3,
      "byteOffset": 150096,
      "componentType": 5126,
      "count": 638,
      "max": [
        0.44089770317077637,
        0.41883325576782227,
        0.5297268629074097
      ],
      "min": [
        -0.32548773288726807,
        -3.6623213291168213,
        -0.17311254143714905
      ],
      "type": "VEC3"
    },
    {
      "bufferView": 3,
      "byteOffset": 157752,
      "componentType": 5126,
      "count": 638,
      "max": [
        0.9965912103652954,
        0.9776161909103394,
        0.9988235235214233
      ],
      "min": [
        -0.9943540692329407,
        -0.9926128387451172,
        -0.9997018575668335
      ],
      "type": "VEC3"
    },
    {
      "bufferView": 2,
      "byteOffset": 50032,
      "componentType": 5126,
      "count": 638,
      "max": [
        0.18248607218265533,
        0.8097295165061951
      ],
      "min": [
        0.06920479238033295,
        0.7980107665061951
      ],
      "type": "VEC2"
    },
    {
      "bufferView": 1,
      "byteOffset": 34920,
      "componentType": 5125,
      "count": 894,
      "type": "SCALAR"
    },
    {
      "bufferView": 3,
      "byteOffset": 165408,
      "componentType": 5126,
      "count": 638,
      "max": [
        0.44089770317077637,
        0.41883325576782227,
        0.5297268629074097
      ],
      "min": [
        -0.32548773288726807,
        -3.6623213291168213,
        -0.17311254143714905
      ],
      "type": "VEC3"
    },
    {
      "bufferView": 3,
      "byteOffset": 173064,
      "componentType": 5126,
      "count": 638,
      "max": [
        0.9965912103652954,
        0.9776161909103394,
        0.9988235235214233
      ],
      "min": [
        -0.9943540692329407,
        -0.9926128387451172,
        -0.9997018575668335
      ],
      "type": "VEC3"
    },
    {
      "bufferView": 2,
      "byteOffset": 55136,
      "componentType": 5126,
      "count": 638,
      "max": [
        0.18248607218265533,
        0.8097295165061951
      ],
      "min": [
        0.06920479238033295,
        0.7980107665061951
      ],
      "type": "VEC2"
    },
    {
      "bufferView": 1,
      "byteOffset": 38496,
      "componentType": 5125,
      "count": 894,
      "type": "SCALAR"
    },
    {
      "bufferView": 3,
      "byteOffset": 180720,
      "componentType": 5126,
      "count": 638,
      "max": [
        0.44089770317077637,
        0.41883325576782227,
        0.5297268629074097
      ],
      "min": [
        -0.32548773288726807,
        -3.6623213291168213,
        -0.17311254143714905
      ],
      "type": "VEC3"
    },
    {
      "bufferView": 3,
      "byteOffset": 188376,
      "componentType": 5126,
      "count": 638,
      "max": [
        0.9965912103652954,
        0.9776161909103394,
        0.9988235235214233
      ],
      "min": [
        -0.9943540692329407,
        -0.9926128387451172,
        -0.9997018575668335
      ],
      "type": "VEC3"
    },
    {
      "bufferView": 2,
      "byteOffset": 60240,
      "componentType": 5126,
      "count": 638,
      "max": [
        0.18248607218265533,
        0.8097295165061951
      ],
      "min": [
        0.06920479238033295,
        0.7980107665061951
      ],
      "type": "VEC2"
    },
    {
      "bufferView": 1,
      "byteOffset": 42072,
      "componentType": 5125,
      "count": 894,
      "type": "SCALAR"
    },
    {
      "bufferView": 3,
      "byteOffset": 196032,
      "componentType": 5126,
      "count": 638,
      "max": [
        0.44089770317077637,
        0.41883325576782227,
        0.5297268629074097
      ],
      "min": [
        -0.32548773288726807,
        -3.6623213291168213,
        -0.17311254143714905
      ],
      "type": "VEC3"
    },
    {
      "bufferView": 3,
      "byteOffset": 203688,
      "componentType": 5126,
      "count": 638,
      "max": [
        0.9965912103652954,
        0.9776161909103394,
        0.9988235235214233
      ],
      "min": [
        -0.9943540692329407,
        -0.9926128387451172,
        -0.9997018575668335
      ],
      "type": "VEC3"
    },
    {
      "bufferView": 2,
      "byteOffset": 65344,
      "componentType": 5126,
      "count": 638,
      "max": [
        0.18248607218265533,
        0.8097295165061951
      ],
      "min": [
        0.06920479238033295,
        0.7980107665061951
      ],
      "type": "VEC2"
    },
    {
      "bufferView": 1,
      "byteOffset": 45648,
      "componentType": 5125,
      "count": 894,
      "type": "SCALAR"
    },
    {
      "bufferView": 3,
      "byteOffset": 211344,
      "componentType": 5126,
      "count": 638,
      "max": [
        0.44089770317077637,
        0.41883325576782227,
        0.5297268629074097
      ],
      "min": [
        -0.32548773288726807,
        -3.6623213291168213,
        -0.17311254143714905
      ],
      "type": "VEC3"
    },
    {
      "bufferView": 3,
      "byteOffset": 219000,
      "componentType": 5126,
      "count": 638,
      "max": [
        0.9965912103652954,
        0.9776161909103394,
        0.9988235235214233
      ],
      "min": [
        -0.9943540692329407,
        -0.9926128387451172,
        -0.9997018575668335
      ],
      "type": "VEC3"
    },
    {
      "bufferView": 2,
      "byteOffset": 70448,
      "componentType": 5126,
      "count": 638,
      "max": [
        0.18248607218265533,
        0.8097295165061951
      ],
      "min": [
        0.06920479238033295,
        0.7980107665061951
      ],
      "type": "VEC2"
    },
    {
      "bufferView": 1,
      "byteOffset": 49224,
      "componentType": 5125,
      "count": 894,
      "type": "SCALAR"
    },
    {
      "bufferView": 3,
      "byteOffset": 226656,
      "componentType": 5126,
      "count": 638,
      "max": [
        0.8135809898376465,
        0.1765909194946289,
        1.0445939302444458
      ],
      "min": [
        -0.2914217710494995,
        -3.839632987976074,
        -0.15307818353176117
      ],
      "type": "VEC3"
    },
    {
      "bufferView": 3,
      "byteOffset": 234312,
      "componentType": 5126,
      "count": 638,
      "max": [
        0.9834712147712708,
        0.813847005367279,
        0.9998899698257446
      ],
      "min": [
        -0.9912852048873901,
        -0.8981822729110718,
        -0.9996635913848877
      ],
      "type": "VEC3"
    },
    {
      "bufferView": 2,
      "byteOffset": 75552,
      "componentType": 5126,
      "count": 638,
      "max": [
        0.18248607218265533,
        0.8097295165061951
      ],
      "min": [
        0.06920479238033295,
        0.7980107665061951
      ],
      "type": "VEC2"
    },
    {
      "bufferView": 1,
      "byteOffset": 52800,
      "componentType": 5125,
      "count": 894,
      "type": "SCALAR"
    },
    {
      "bufferView": 3,
      "byteOffset": 241968,
      "componentType": 5126,
      "count": 638,
      "max": [
        0.8135809898376465,
        0.1765909194946289,
        1.0445939302444458
      ],
      "min": [
        -0.2914217710494995,
        -3.839632987976074,
        -0.15307818353176117
      ],
      "type": "VEC3"
    },
    {
      "bufferView": 3,
      "byteOffset": 249624,
      "componentType": 5126,
      "count": 638,
      "max": [
        0.9834712147712708,
        0.813847005367279,
        0.9998899698257446
      ],
      "min": [
        -0.9912852048873901,
        -0.8981822729110718,
        -0.9996635913848877
      ],
      "type": "VEC3"
    },
    {
      "bufferView": 2,
      "byteOffset": 80656,
      "componentType": 5126,
      "count": 638,
      "max": [
        0.18248607218265533,
        0.8097295165061951
      ],
      "min": [
        0.06920479238033295,
        0.7980107665061951
      ],
      "type": "VEC2"
    },
    {
      "bufferView": 1,
      "byteOffset": 56376,
      "componentType": 5125,
      "count": 894,
      "type": "SCALAR"
    },
    {
      "bufferView": 3,
      "byteOffset": 257280,
      "componentType": 5126,
      "count": 638,
      "max": [
        0.8135809898376465,
        0.1765909194946289,
        1.0445939302444458
      ],
      "min": [
        -0.2914217710494995,
        -3.839632987976074,
        -0.15307818353176117
      ],
      "type": "VEC3"
    },
    {
      "bufferView": 3,
      "byteOffset": 264936,
      "componentType": 5126,
      "count": 638,
      "max": [
        0.9834712147712708,
        0.813847005367279,
        0.9998899698257446
      ],
      "min": [
        -0.9912852048873901,
        -0.8981822729110718,
        -0.9996635913848877
      ],
      "type": "VEC3"
    },
    {
      "bufferView": 2,
      "byteOffset": 85760,
      "componentType": 5126,
      "count": 638,
      "max": [
        0.18248607218265533,
        0.8097295165061951
      ],
      "min": [
        0.06920479238033295,
        0.7980107665061951
      ],
      "type": "VEC2"
    },
    {
      "bufferView": 1,
      "byteOffset": 59952,
      "componentType": 5125,
      "count": 894,
      "type": "SCALAR"
    },
    {
      "bufferView": 3,
      "byteOffset": 272592,
      "componentType": 5126,
      "count": 508,
      "max": [
        1.2575432062149048,
        3.247849702835083,
        1.0636693239212036
      ],
      "min": [
        -1.2575432062149048,
        -8.010990142822266,
        -3.4234743118286133
      ],
      "type": "VEC3"
    },
    {
      "bufferView": 3,
      "byteOffset": 278688,
      "componentType": 5126,
      "count": 508,
      "max": [
        0.999557614326477,
        0.8118647933006287,
        0.9713438749313354
      ],
      "min": [
        -0.999557614326477,
        -0.6118190288543701,
        -0.9514247179031372
      ],
      "type": "VEC3"
    },
    {
      "bufferView": 2,
      "byteOffset": 90864,
      "componentType": 5126,
      "count": 508,
      "max": [
        0.5915353298187256,
        0.942863941192627
      ],
      "min": [
        0.0,
        0.0
      ],
      "type": "VEC2"
    },
    {
      "bufferView": 1,
      "byteOffset": 63528,
      "componentType": 5125,
      "count": 552,
      "type": "SCALAR"
    },
    {
      "bufferView": 3,
      "byteOffset": 284784,
      "componentType": 5126,
      "count": 460,
      "max": [
        1.1132440567016602,
        2.994615077972412,
        1.0534948110580444
      ],
      "min": [
        -1.1132440567016602,
        -9.073508262634277,
        -2.9271514415740967
      ],
      "type": "VEC3"
    },
    {
      "bufferView": 3,
      "byteOffset": 290304,
      "componentType": 5126,
      "count": 460,
      "max": [
        0.9997060298919678,
        0.30965104699134827,
        0.9654866456985474
      ],
      "min": [
        -0.9997060298919678,
        -0.9454976320266724,
        -0.9664788246154785
      ],
      "type": "VEC3"
    },
    {
      "bufferView": 2,
      "byteOffset": 94928,
      "componentType": 5126,
      "count": 460,
      "max": [
        0.590304970741272,
        0.9550931453704834
      ],
      "min": [
        0.590304970741272,
        0.9550930857658386
      ],
      "type": "VEC2"
    },
    {
      "bufferView": 1,
      "byteOffset": 65736,
      "componentType": 5125,
      "count": 576,
      "type": "SCALAR"
    },
    {
      "bufferView": 3,
      "byteOffset": 295824,
      "componentType": 5126,
      "count": 240,
      "max": [
        0.9999997615814209,
        1.0,
        0.9999995231628418
      ],
      "min": [
        -0.9999996423721313,
        -1.0,
        -1.0
      ],
      "type": "VEC3"
    },
    {
      "bufferView": 3,
      "byteOffset": 298704,
      "componentType": 5126,
      "count": 240,
      "max": [
        0.9086634516716003,
        0.9775986671447754,
        0.9086634516716003
      ],
      "min": [
        -0.9086634516716003,
        -0.9775986075401306,
        -0.9086633920669556
      ],
      "type": "VEC3"
    },
    {
      "bufferView": 2,
      "byteOffset": 98608,
      "componentType": 5126,
      "count": 240,
      "max": [
        0.07674533128738403,
        0.78545081615448
      ],
      "min": [
        0.07674533128738403,
        0.78545081615448
      ],
      "type": "VEC2"
    },
    {
      "bufferView": 1,
      "byteOffset": 68040,
      "componentType": 5125,
      "count": 336,
      "type": "SCALAR"
    },
    {
      "bufferView": 3,
      "byteOffset": 301584,
      "componentType": 5126,
      "count": 638,
      "max": [
        0.9463518857955933,
        1.4410866498947144,
        0.5550570487976074
      ],
      "min": [
        -0.5136586427688599,
        -3.0871100425720215,
        -0.2224305123090744
      ],
      "type": "VEC3"
    },
    {
      "bufferView": 3,
      "byteOffset": 309240,
      "componentType": 5126,
      "count": 638,
      "max": [
        0.9956149458885193,
        0.972680389881134,
        0.9913303256034851
      ],
      "min": [
        -0.9820222854614258,
        -0.9818568825721741,
        -0.9872121810913086
      ],
      "type": "VEC3"
    },
    {
      "bufferView": 2,
      "byteOffset": 100528,
      "componentType": 5126,
      "count": 638,
      "max": [
        0.18248607218265533,
        0.8097295165061951
      ],
      "min": [
        0.06920479238033295,
        0.7980107665061951
      ],
      "type": "VEC2"
    },
    {
      "bufferView": 1,
      "byteOffset": 69384,
      "componentType": 5125,
      "count": 894,
      "type": "SCALAR"
    },
    {
      "bufferView": 5,
      "componentType": 5126,
      "count": 50,
      "max": [
        1.0,
        0.9915232062339783,
        0.09538878500461578,
        0.0,
        0.9915231466293335,
        1.0,
        0.7463195323944092,
        0.0,
        0.14601382613182068,
        0.7430285811424255,
        1.0,
        0.0,
        4.8009796142578125,
        4.426668167114258,
        1.6303044557571411,
        1.0
      ],
      "min": [
        -0.9996702671051025,
        -0.9915232062339783,
        -0.09538878500461578,
        0.0,
        -0.9915231466293335,
        -0.9955687522888184,
        -0.3759877681732178,
        0.0,
        -0.14601382613182068,
        -0.3777115046977997,
        0.6594749689102173,
        0.0,
        -4.8009796142578125,
        -5.755449295043945,
        -1.0831550359725952,
        1.0
      ],
      "type": "MAT4"
    },
    {
      "bufferView": 0,
      "componentType": 5123,
      "count": 2426,
      "type": "VEC4"
    },
    {
      "bufferView": 4,
      "componentType": 5126,
      "count": 2426,
      "max": [
        1.0,
        0.4998798668384552,
        0.2756599187850952,
        0.20028258860111237
      ],
      "min": [
        0.2879381775856018,
        0.0,
        0.0,
        0.0
      ],
      "type": "VEC4"
    }
  ],
  "asset": {
    "extras": {
      "author": "micaelsampaio (https://sketchfab.com/micaelsampaio)",
      "license": "CC-BY-4.0 (http://creativecommons.org/licenses/by/4.0/)",
      "source": "https://sketchfab.com/3d-models/anime-illustration-low-poly-character-438de7d5d235410da8722050cfcc61e9",
      "title": "Anime Illustration Low Poly Character"
    },
    "generator": "Sketchfab-12.68.0",
    "version": "2.0"
  },
  "bufferViews": [
    {
      "buffer": 0,
      "byteLength": 19408,
      "byteStride": 8,
      "name": "shortBufferViews",
      "target": 34962
    },
    {
      "buffer": 0,
      "byteLength": 72960,
      "byteOffset": 19408,
      "name": "floatBufferViews",
      "target": 34963
    },
    {
      "buffer": 0,
      "byteLength": 105632,
      "byteOffset": 92368,
      "byteStride": 8,
      "name": "floatBufferViews",
      "target": 34962
    },
    {
      "buffer": 0,
      "byteLength": 316896,
      "byteOffset": 198000,
      "byteStride": 12,
      "name": "floatBufferViews",
      "target": 34962
    },
    {
      "buffer": 0,
      "byteLength": 38816,
      "byteOffset": 514896,
      "byteStride": 16,
      "name": "floatBufferViews",
      "target": 34962
    },
    {
      "buffer": 0,
      "byteLength": 3200,
      "byteOffset": 553712,
      "name": "floatBufferViews"
    }
  ],
  "buffers": [
    {
      "byteLength": 556912,
      "uri": "scene.bin"
    }
  ],
  "extensionsUsed": [
    "KHR_materials_unlit"
  ],
  "images": [
    {
      "uri": "textures/Material_baseColor.png"
    }
  ],
  "materials": [
    {
      "doubleSided": true,
      "extensions": {
        "KHR_materials_unlit": {}
      },
      "name": "Material",
      "pbrMetallicRoughness": {
        "baseColorTexture": {
          "index": 0
        },
        "metallicFactor": 0.0
      }
    }
  ],
  "meshes": [
    {
      "name": "Object_0",
      "primitives": [
        {
          "attributes": {
            "JOINTS_0": 77,
            "NORMAL": 1,
            "POSITION": 0,
            "TEXCOORD_0": 2,
            "WEIGHTS_0": 78
          },
          "indices": 3,
          "material": 0,
          "mode": 4
        }
      ]
    },
    {
      "name": "Object_1",
      "primitives": [
        {
          "attributes": {
            "NORMAL": 5,
            "POSITION": 4,
            "TEXCOORD_0": 6
          },
          "indices": 7,
          "material": 0,
          "mode": 4
        }
      ]
    },
    {
      "name": "Object_2",
      "primitives": [
        {
          "attributes": {
            "NORMAL": 9,
            "POSITION": 8,
            "TEXCOORD_0": 10
          },
          "indices": 11,
          "material": 0,
          "mode": 4
        }
      ]
    },
    {
      "name": "Object_3",
      "primitives": [
        {
          "attributes": {
            "NORMAL": 13,
            "POSITION": 12,
            "TEXCOORD_0": 14
          },
          "indices": 15,
          "material": 0,
          "mode": 4
        }
      ]
    },
    {
      "name": "Object_4",
      "primitives": [
        {
          "attributes": {
            "NORMAL": 17,
            "POSITION": 16,
            "TEXCOORD_0": 18
          },
          "indices": 19,
          "material": 0,
          "mode": 4
        }
      ]
    },
    {
      "name": "Object_5",
      "primitives": [
        {
          "attributes": {
            "NORMAL": 21,
            "POSITION": 20,
            "TEXCOORD_0": 22
          },
          "indices": 23,
          "material": 0,
          "mode": 4
        }
      ]
    },
    {
      "name": "Object_6",
      "primitives": [
        {
          "attributes": {
            "NORMAL": 25,
            "POSITION": 24,
            "TEXCOORD_0": 26
          },
          "indices": 27,
          "material": 0,
          "mode": 4
        }
      ]
    },
    {
      "name": "Object_7",
      "primitives": [
        {
          "attributes": {
            "NORMAL": 29,
            "POSITION": 28,
            "TEXCOORD_0": 30
          },
          "indices": 31,
          "material": 0,
          "mode": 4
        }
      ]
    },
    {
      "name": "Object_8",
      "primitives": [
        {
          "attributes": {
            "NORMAL": 33,
            "POSITION": 32,
            "TEXCOORD_0": 34
          },
          "indices": 35,
          "material": 0,
          "mode": 4
        }
      ]
    },
    {
      "name": "Object_9",
      "primitives": [
        {
          "attributes": {
            "NORMAL": 37,
            "POSITION": 36,
            "TEXCOORD_0": 38
          },
          "indices": 39,
          "material": 0,
          "mode": 4
        }
      ]
    },
    {
      "name": "Object_10",
      "primitives": [
        {
          "attributes": {
            "NORMAL": 41,
            "POSITION": 40,
            "TEXCOORD_0": 42
          },
          "indices": 43,
          "material": 0,
          "mode": 4
        }
      ]
    },
    {
      "name": "Object_11",
      "primitives": [
        {
          "attributes": {
            "NORMAL": 45,
            "POSITION": 44,
            "TEXCOORD_0": 46
          },
          "indices": 47,
          "material": 0,
          "mode": 4
        }
      ]
    },
    {
      "name": "Object_12",
      "primitives": [
        {
          "attributes": {
            "NORMAL": 49,
            "POSITION": 48,
            "TEXCOORD_0": 50
          },
          "indices": 51,
          "material": 0,
          "mode": 4
        }
      ]
    },
    {
      "name": "Object_13",
      "primitives": [
        {
          "attributes": {
            "NORMAL": 53,
            "POSITION": 52,
            "TEXCOORD_0": 54
          },
          "indices": 55,
          "material": 0,
          "mode": 4
        }
      ]
    },
    {
      "name": "Object_14",
      "primitives": [
        {
          "attributes": {
            "NORMAL": 57,
            "POSITION": 56,
            "TEXCOORD_0": 58
          },
          "indices": 59,
          "material": 0,
          "mode": 4
        }
      ]
    },
    {
      "name": "Object_15",
      "primitives": [
        {
          "attributes": {
            "NORMAL": 61,
            "POSITION": 60,
            "TEXCOORD_0": 62
          },
          "indices": 63,
          "material": 0,
          "mode": 4
        }
      ]
    },
    {
      "name": "Object_16",
      "primitives": [
        {
          "attributes": {
            "NORMAL": 65,
            "POSITION": 64,
            "TEXCOORD_0": 66
          },
          "indices": 67,
          "material": 0,
          "mode": 4
        }
      ]
    },
    {
      "name": "Object_17",
      "primitives": [
        {
          "attributes": {
            "NORMAL": 69,
            "POSITION": 68,
            "TEXCOORD_0": 70
          },
          "indices": 71,
          "material": 0,
          "mode": 4
        }
      ]
    },
    {
      "name": "Object_18",
      "primitives": [
        {
          "attributes": {
            "NORMAL": 73,
            "POSITION": 72,
            "TEXCOORD_0": 74
          },
          "indices": 75,
          "material": 0,
          "mode": 4
        }
      ]
    }
  ],
  "nodes": [
    {
      "children": [
        1
      ],
      "matrix": [
        1.0,
        0.0,
        0.0,
        0.0,
        0.0,
        2.220446049250313e-16,
        -1.0,
        0.0,
        0.0,
        1.0,
        2.220446049250313e-16,
        0.0,
        0.0,
        0.0,
        0.0,
        1.0
      ],
      "name": "Sketchfab_model"
    },
    {
      "children": [
        2
      ],
      "name": "root"
    },
    {
      "children": [
        3,
        57,
        82,
        107,
        109,
        111,
        113,
        115,
        117,
        119,
        121,
        123,
        125,
        127,
        129,
        131,
        133,
        135,
        137
      ],
      "matrix": [
        1.0,
        0.0,
        0.0,
        0.0,
        0.0,
        2.220446049250313e-16,
        1.0,
        0.0,
        0.0,
        -1.0,
        2.220446049250313e-16,
        0.0,
        0.0,
        0.0,
        0.0,
        1.0
      ],
      "name": "GLTF_SceneRootNode"
    },
    {
      "children": [
        4
      ],
      "matrix": [
        1.0,
        0.0,
        0.0,
        0.0,
        0.0,
        1.0,
        0.0,
        0.0,
        0.0,
        0.0,
        1.0,
        0.0,
        0.0,
        2.1320784091949463,
        0.0,
        1.0
      ],
      "name": "Armature_50"
    },
    {
      "children": [
        5,
        7,
        6
      ],
      "name": "GLTF_created_0"
    },
    {
      "children": [
        8
      ],
      "name": "GLTF_created_0_rootJoint"
    },
    {
      "name": "Boy_49"
    },
    {
      "mesh": 0,
      "name": "Object_7",
      "skin": 0
    },
    {
      "children": [
        9
      ],
      "name": "root_48",
      "rotation": [
        -0.0065625314600765705,
        1.1920674580778723e-07,
        -7.823193759470826e-10,
        0.9999784827232361
      ],
      "translation": [
        -3.3861802251067274e-15,
        0.20000000298023224,
        0.21001562476158142
      ]
    },
    {
      "children": [
        10
      ],
      "name": "spine1_47",
      "rotation": [
        -0.016521817073225975,
        -1.1919305364926913e-07,
        -1.9695542974318414e-09,
        0.9998635053634644
      ],
      "translation": [
        -1.827206768322768e-15,
        1.0000859498977661,
        4.869892933356823e-09
      ]
    },
    {
      "children": [
        11,
        13,
        35
      ],
      "name": "spine2_46",
      "rotation": [
        0.004164237529039383,
        -6.140990985176046e-16,
        7.614341137104959e-17,
        0.9999914169311523
      ],
      "scale": [
        1.0,
        0.9999998807907104,
        0.9999999403953552
      ],
      "translation": [
        3.122236994395312e-23,
        0.853186309337616,
        -2.230652285106771e-08
      ]
    },
    {
      "children": [
        12
      ],
      "name": "neck_1",
      "rotation": [
        -0.0912959948182106,
        2.3742289556594187e-07,
        -2.1766664914935063e-08,
        0.995823860168457
      ],
      "scale": [
        1.0,
        1.0000001192092896,
        1.0000001192092896
      ],
      "translation": [
        -5.293955920339377e-23,
        1.2403010129928589,
        7.450580596923828e-09
      ]
    },
    {
      "name": "head_0",
      "rotation": [
        -0.4408798813819885,
        -1.0699818631110247e-07,
        -1.5767093941576604e-07,
        0.8975661396980286
      ],
      "translation": [
        6.716094423219604e-14,
        0.5667203664779663,
        -1.4243589419038472e-07
      ]
    },
    {
      "children": [
        14
      ],
      "name": "Left_shoulder_23",
      "rotation": [
        -0.010471566580235958,
        -0.011933108791708946,
        -0.7515463829040527,
        0.6594892144203186
      ],
      "scale": [
        1.000000238418579,
        1.0000001192092896,
        1.0
      ],
      "translation": [
        0.3466067612171173,
        0.8117035031318665,
        -0.030130401253700256
      ]
    },
    {
      "children": [
        15
      ],
      "name": "Left_arm_22",
      "rotation": [
        -0.044100165367126465,
        0.043451935052871704,
        -0.5853993892669678,
        0.8083778023719788
      ],
      "scale": [
        0.9999998807907104,
        1.0,
        0.9999998807907104
      ],
      "translation": [
        3.6293432259526526e-08,
        0.6788573861122131,
        4.282080112716358e-08
      ]
    },
    {
      "children": [
        16,
        20,
        24,
        28,
        32
      ],
      "name": "left_hand_21",
      "rotation": [
        0.032525088638067245,
        -0.001636519213207066,
        0.013654150068759918,
        0.9993763566017151
      ],
      "scale": [
        0.9999998807907104,
        0.9999999403953552,
        0.9999999403953552
      ],
      "translation": [
        5.159566285328765e-08,
        1.9401286840438843,
        2.5556499139156585e-08
      ]
    },
    {
      "children": [
        17
      ],
      "name": "Left_index_1_5",
      "rotation": [
        0.14640216529369354,
        -0.014752292074263096,
        -0.007884512655436993,
        0.9890837073326111
      ],
      "scale": [
        0.9999999403953552,
        0.9999998211860657,
        0.9999999403953552
      ],
      "translation": [
        9.519663990431582e-08,
        1.3511284589767456,
        -3.433535056274195e-08
      ]
    },
    {
      "children": [
        18
      ],
      "name": "Left_index_2_4",
      "rotation": [
        -0.1297888457775116,
        -0.0012791733024641871,
        -0.06991904973983765,
        0.9890725612640381
      ],
      "scale": [
        1.0,
        0.9999999403953552,
        1.0000001192092896
      ],
      "translation": [
        -1.4240706036616757e-07,
        0.5567569136619568,
        7.971492799185853e-09
      ]
    },
    {
      "children": [
        19
      ],
      "name": "Left_index_3_3",
      "rotation": [
        -0.008735389448702335,
        -0.03034512884914875,
        -0.15176907181739807,
        0.9879114627838135
      ],
      "scale": [
        1.0000001192092896,
        1.0000001192092896,
        1.0000001192092896
      ],
      "translation": [
        8.720546418317099e-08,
        0.11793717741966248,
        -1.8229735943009473e-08
      ]
    },
    {
      "name": "Left_index_4_2",
      "rotation": [
        -0.017333244904875755,
        -0.029608312994241714,
        -0.16686761379241943,
        0.9853822588920593
      ],
      "scale": [
        1.0,
        0.9999998807907104,
        1.0
      ],
      "translation": [
        -3.0351376967274746e-09,
        0.13883575797080994,
        5.251697032804259e-08
      ]
    },
    {
      "children": [
        21
      ],
      "name": "left_middle1_9",
      "rotation": [
        0.03674850985407829,
        -0.0034915239084511995,
        -0.011551015079021454,
        0.9992517828941345
      ],
      "scale": [
        0.9999998807907104,
        0.9999998807907104,
        0.9999998807907104
      ],
      "translation": [
        -2.5746702547735367e-08,
        1.3511284589767456,
        -3.1380494647237356e-08
      ]
    },
    {
      "children": [
        22
      ],
      "name": "left_middle2_8",
      "rotation": [
        -0.04986197501420975,
        0.0015983239281922579,
        -0.05176214501261711,
        0.9974126219749451
      ],
      "scale": [
        1.0,
        1.0,
        1.0000001192092896
      ],
      "translation": [
        3.603985874178761e-07,
        0.5555733442306519,
        -3.0799651717927645e-09
      ]
    },
    {
      "children": [
        23
      ],
      "name": "left_middle3_7",
      "rotation": [
        -0.02446080558001995,
        0.003625510958954692,
        -0.132655531167984,
        0.9908536672592163
      ],
      "scale": [
        0.9999998807907104,
        0.9999998807907104,
        0.9999999403953552
      ],
      "translation": [
        2.0498417541148228e-07,
        0.12527090311050415,
        1.2568909468768652e-08
      ]
    },
    {
      "name": "left_middle4_6",
      "rotation": [
        -0.002105630235746503,
        0.00019107875414192677,
        -0.20971384644508362,
        0.9777605533599854
      ],
      "scale": [
        1.0000001192092896,
        1.0,
        1.0
      ],
      "translation": [
        -6.048485712284446e-09,
        0.1540890634059906,
        3.3527086884532764e-08
      ]
    },
    {
      "children": [
        25
      ],
      "name": "left_ring1_13",
      "rotation": [
        -0.07532529532909393,
        0.008032252080738544,
        0.0011570240603759885,
        0.9971259832382202
      ],
      "scale": [
        0.9999999403953552,
        0.9999999403953552,
        0.9999998807907104
      ],
      "translation": [
        -2.396944509541754e-08,
        1.3511284589767456,
        3.9963676812249105e-10
      ]
    },
    {
      "children": [
        26
      ],
      "name": "left_ring2_12",
      "rotation": [
        0.009064371697604656,
        0.008436883799731731,
        -0.0822434201836586,
        0.9965353608131409
      ],
      "scale": [
        0.9999998211860657,
        0.9999999403953552,
        0.9999998807907104
      ],
      "translation": [
        6.915070116519928e-08,
        0.5257372856140137,
        3.91155481338501e-08
      ]
    },
    {
      "children": [
        27
      ],
      "name": "left_ring3_11",
      "rotation": [
        -0.01210017129778862,
        0.04329533874988556,
        -0.2053116112947464,
        0.9776636958122253
      ],
      "scale": [
        1.0000001192092896,
        1.0000001192092896,
        0.9999999403953552
      ],
      "translation": [
        -5.7386589702446145e-08,
        0.13821116089820862,
        2.002905929998633e-08
      ]
    },
    {
      "name": "left_ring4_10",
      "rotation": [
        0.001253505819477141,
        0.0228499174118042,
        -0.10278424620628357,
        0.9944404363632202
      ],
      "scale": [
        0.9999998211860657,
        1.0,
        0.9999998211860657
      ],
      "translation": [
        -6.7133562708932e-08,
        0.1365586817264557,
        5.142294368098987e-10
      ]
    },
    {
      "children": [
        29
      ],
      "name": "left_pinky1_17",
      "rotation": [
        -0.19334401190280914,
        0.0188925638794899,
        -0.0032500089146196842,
        0.9809437394142151
      ],
      "scale": [
        1.0,
        1.0000001192092896,
        0.9999998807907104
      ],
      "translation": [
        9.533290779017989e-08,
        1.3511284589767456,
        8.841210430432511e-09
      ]
    },
    {
      "children": [
        30
      ],
      "name": "left_pinky2_16",
      "rotation": [
        0.05466921627521515,
        -0.007486116141080856,
        -0.06638498604297638,
        0.9962671995162964
      ],
      "scale": [
        0.9999998807907104,
        1.0,
        0.9999998807907104
      ],
      "translation": [
        -8.304094478717161e-08,
        0.5260788202285767,
        -3.5945742382637036e-08
      ]
    },
    {
      "children": [
        31
      ],
      "name": "left_pinky3_15",
      "rotation": [
        -0.016177648678421974,
        0.07442361116409302,
        -0.16049683094024658,
        0.9840936064720154
      ],
      "scale": [
        1.0000001192092896,
        1.0,
        0.9999998807907104
      ],
      "translation": [
        -2.3461892340037593e-07,
        0.09293368458747864,
        1.0548188988934726e-08
      ]
    },
    {
      "name": "left_pinky4_14",
      "rotation": [
        0.014831097796559334,
        0.09149637073278427,
        -0.1513335108757019,
        0.9841273427009583
      ],
      "scale": [
        0.9999998807907104,
        1.0,
        1.0000001192092896
      ],
      "translation": [
        1.9692522812420066e-07,
        0.10817752778530121,
        -2.0830102087643354e-08
      ]
    },
    {
      "children": [
        33
      ],
      "name": "left_hand.013_20",
      "rotation": [
        0.3995935320854187,
        0.01023753359913826,
        -0.11244818568229675,
        0.9097117781639099
      ],
      "scale": [
        0.9999999403953552,
        0.9999998807907104,
        0.9999998807907104
      ],
      "translation": [
        -3.3926873754808184e-08,
        1.3511284589767456,
        -5.568091054897195e-08
      ]
    },
    {
      "children": [
        34
      ],
      "name": "left_hand.014_19",
      "rotation": [
        -0.22843067348003387,
        -0.018695149570703506,
        -0.041029296815395355,
        0.9725155830383301
      ],
      "scale": [
        1.0,
        1.0,
        1.0000001192092896
      ],
      "translation": [
        1.7897271220590483e-07,
        0.32906025648117065,
        4.6090518068808706e-09
      ]
    },
    {
      "name": "left_hand.015_18",
      "rotation": [
        -0.1572851538658142,
        -0.020072609186172485,
        -0.016029711812734604,
        0.9872190952301025
      ],
      "scale": [
        0.9999998807907104,
        1.0,
        0.9999998807907104
      ],
      "translation": [
        1.395607114318409e-07,
        0.1531810462474823,
        1.544592187485705e-08
      ]
    },
    {
      "children": [
        36
      ],
      "name": "Right_shoulder_45",
      "rotation": [
        -0.010471566580235958,
        0.011933108791708946,
        0.7515463829040527,
        0.6594892144203186
      ],
      "scale": [
        1.000000238418579,
        1.0000001192092896,
        1.0
      ],
      "translation": [
        -0.3466067612171173,
        0.8117035031318665,
        -0.030130401253700256
      ]
    },
    {
      "children": [
        37
      ],
      "name": "Right_arm_44",
      "rotation": [
        -0.03566424548625946,
        -0.03305474668741226,
        0.5833032131195068,
        0.8107976913452148
      ],
      "scale": [
        0.9999997615814209,
        1.0,
        0.9999999403953552
      ],
      "translation": [
        -3.6293432259526526e-08,
        0.6788573861122131,
        4.282080112716358e-08
      ]
    },
    {
      "children": [
        38,
        42,
        46,
        50,
        54
      ],
      "name": "right_hand_43",
      "rotation": [
        0.03954288735985756,
        -0.0004766891652252525,
        -0.010749194771051407,
        0.9991599321365356
      ],
      "scale": [
        0.9999997615814209,
        0.9999998211860657,
        0.9999999403953552
      ],
      "translation": [
        -5.159208171789942e-08,
        1.9401286840438843,
        1.9970812559222395e-08
      ]
    },
    {
      "children": [
        39
      ],
      "name": "Right_index_1_27",
      "rotation": [
        0.14640216529369354,
        0.014752286486327648,
        0.007884515449404716,
        0.9890837073326111
      ],
      "scale": [
        0.9999999403953552,
        0.9999998211860657,
        0.9999999403953552
      ],
      "translation": [
        -9.358595320918539e-08,
        1.351128339767456,
        -2.3099390844549816e-08
      ]
    },
    {
      "children": [
        40
      ],
      "name": "Right_index_2_26",
      "rotation": [
        -0.12318491190671921,
        0.0037850418593734503,
        0.07271092385053635,
        0.989709198474884
      ],
      "scale": [
        1.0000001192092896,
        1.0,
        1.0000001192092896
      ],
      "translation": [
        -9.881453877369495e-08,
        0.5567570328712463,
        -1.584405318055815e-08
      ]
    },
    {
      "children": [
        41
      ],
      "name": "Right_index_3_25",
      "rotation": [
        -0.007806058973073959,
        0.006298511754721403,
        0.1101815328001976,
        0.9938609004020691
      ],
      "scale": [
        1.0000001192092896,
        1.0,
        1.0
      ],
      "translation": [
        4.072180104230938e-08,
        0.11793694645166397,
        -1.3905661511159906e-08
      ]
    },
    {
      "name": "Right_index_4_24",
      "rotation": [
        -0.017037097364664078,
        0.007450527977198362,
        0.1661035269498825,
        0.9859330058097839
      ],
      "scale": [
        0.9999998807907104,
        0.9999999403953552,
        1.0
      ],
      "translation": [
        1.2693651285644592e-07,
        0.13883563876152039,
        5.735778429993843e-08
      ]
    },
    {
      "children": [
        43
      ],
      "name": "right_middle1_31",
      "rotation": [
        0.03674851357936859,
        0.003491524374112487,
        0.011551011353731155,
        0.9992517828941345
      ],
      "scale": [
        0.9999998211860657,
        1.0,
        0.9999998211860657
      ],
      "translation": [
        1.421707764848179e-07,
        1.3511285781860352,
        -2.706166313259928e-08
      ]
    },
    {
      "children": [
        44
      ],
      "name": "right_middle2_30",
      "rotation": [
        -0.018852638080716133,
        0.0056915078312158585,
        0.060611382126808167,
        0.9979671835899353
      ],
      "scale": [
        1.0,
        1.0,
        1.0000001192092896
      ],
      "translation": [
        -2.427897811685398e-07,
        0.5555732250213623,
        2.1833508334623275e-09
      ]
    },
    {
      "children": [
        45
      ],
      "name": "right_middle3_29",
      "rotation": [
        -0.025117088109254837,
        -0.0019172412576153874,
        0.08731977641582489,
        0.9958618879318237
      ],
      "scale": [
        1.0,
        0.9999998211860657,
        1.0000001192092896
      ],
      "translation": [
        -2.04760297606299e-07,
        0.12527090311050415,
        -2.31111707549303e-09
      ]
    },
    {
      "name": "right_middle4_28",
      "rotation": [
        -0.0022985630203038454,
        0.004672737792134285,
        0.20586052536964417,
        0.9785674810409546
      ],
      "scale": [
        0.9999998211860657,
        0.9999999403953552,
        1.0
      ],
      "translation": [
        2.571003108187142e-07,
        0.15408897399902344,
        4.564172151333423e-09
      ]
    },
    {
      "children": [
        47
      ],
      "name": "right_ring1_35",
      "rotation": [
        -0.07532529532909393,
        -0.008032250218093395,
        -0.0011570202186703682,
        0.9971259832382202
      ],
      "scale": [
        0.9999998211860657,
        0.9999999403953552,
        0.9999998211860657
      ],
      "translation": [
        2.420553890658539e-08,
        1.3511284589767456,
        -1.4330504782833486e-08
      ]
    },
    {
      "children": [
        48
      ],
      "name": "right_ring2_34",
      "rotation": [
        0.014356785453855991,
        -0.006816200911998749,
        0.09469693154096603,
        0.9953792691230774
      ],
      "scale": [
        0.9999998211860657,
        1.0000001192092896,
        0.9999998807907104
      ],
      "translation": [
        5.0053596822863256e-08,
        0.5257372856140137,
        2.5041027029715224e-08
      ]
    },
    {
      "children": [
        49
      ],
      "name": "right_ring3_33",
      "rotation": [
        -0.012765081599354744,
        -0.02294166572391987,
        0.1632828265428543,
        0.9862298965454102
      ],
      "scale": [
        0.9999998211860657,
        0.9999999403953552,
        0.9999998807907104
      ],
      "translation": [
        -5.2231193592433556e-08,
        0.13821108639240265,
        2.6107480621817558e-08
      ]
    },
    {
      "name": "right_ring4_32",
      "rotation": [
        0.0021252655424177647,
        -0.004555564373731613,
        0.10195741802453995,
        0.9947760701179504
      ],
      "scale": [
        0.9999999403953552,
        0.9999998807907104,
        0.9999999403953552
      ],
      "translation": [
        -1.6530975699424744e-07,
        0.13655875623226166,
        -5.587935447692871e-09
      ]
    },
    {
      "children": [
        51
      ],
      "name": "right_pinky1_39",
      "rotation": [
        -0.19334399700164795,
        -0.018892565742135048,
        0.0032500203233212233,
        0.9809437394142151
      ],
      "scale": [
        0.9999999403953552,
        1.0,
        0.9999998211860657
      ],
      "translation": [
        2.4415196975269282e-08,
        1.3511284589767456,
        -2.3283064365386963e-08
      ]
    },
    {
      "children": [
        52
      ],
      "name": "right_pinky2_38",
      "rotation": [
        0.13857464492321014,
        0.016594793647527695,
        0.08760366588830948,
        0.9863302111625671
      ],
      "scale": [
        0.9999998807907104,
        1.0000001192092896,
        0.9999998807907104
      ],
      "translation": [
        8.416358809881785e-08,
        0.5260787010192871,
        -6.656127027326875e-08
      ]
    },
    {
      "children": [
        53
      ],
      "name": "right_pinky3_37",
      "rotation": [
        -0.01732098124921322,
        -0.03039149008691311,
        0.12511733174324036,
        0.9915250539779663
      ],
      "scale": [
        1.0,
        1.0,
        0.9999997615814209
      ],
      "translation": [
        -1.1696196366983713e-07,
        0.09293360263109207,
        -2.2911610386699977e-08
      ]
    },
    {
      "name": "right_pinky4_36",
      "rotation": [
        0.015705540776252747,
        -0.04665827751159668,
        0.15822409093379974,
        0.9861751794815063
      ],
      "scale": [
        0.9999998211860657,
        0.9999998211860657,
        0.9999999403953552
      ],
      "translation": [
        -3.126956755750143e-07,
        0.10817752778530121,
        -7.376749522336468e-08
      ]
    },
    {
      "children": [
        55
      ],
      "name": "right_hand.013_42",
      "rotation": [
        0.3995935916900635,
        -0.01023753359913826,
        0.11244819313287735,
        0.9097117781639099
      ],
      "scale": [
        0.9999999403953552,
        0.9999999403953552,
        0.9999998807907104
      ],
      "translation": [
        3.075631482829522e-08,
        1.3511284589767456,
        -4.488163085625274e-08
      ]
    },
    {
      "children": [
        56
      ],
      "name": "right_hand.014_41",
      "rotation": [
        -0.21247322857379913,
        0.022412452846765518,
        0.03250028192996979,
        0.9763690829277039
      ],
      "scale": [
        1.0000001192092896,
        1.0000001192092896,
        1.000000238418579
      ],
      "translation": [
        -1.836031344737421e-07,
        0.3290603458881378,
        -6.059442281269867e-09
      ]
    },
    {
      "name": "right_hand.015_40",
      "rotation": [
        -0.1563911736011505,
        0.012799839489161968,
        0.021947750821709633,
        0.9873684048652649
      ],
      "scale": [
        0.9999999403953552,
        0.9999999403953552,
        0.9999998211860657
      ],
      "translation": [
        9.899090258613796e-08,
        0.15318098664283752,
        7.199254081768913e-09
      ]
    },
    {
      "children": [
        58,
        60
      ],
      "name": "arm_1_74",
      "rotation": [
        0.676226794719696,
        0.040280964225530624,
        0.7355650067329407,
        0.0062383259646594524
      ],
      "translation": [
        -0.15785884857177734,
        5.197609901428223,
        -0.25495362281799316
      ]
    },
    {
      "children": [
        59
      ],
      "matrix": [
        1.0,
        0.0,
        0.0,
        0.0,
        0.0,
        1.0,
        0.0,
        0.0,
        0.0,
        0.0,
        1.0,
        0.0,
        0.0,
        -2.1320784091949463,
        0.0,
        1.0
      ],
      "name": "Boy.001_51"
    },
    {
      "mesh": 1,
      "name": "Object_59"
    },
    {
      "children": [
        61
      ],
      "name": "root_73",
      "rotation": [
        -0.35129836201667786,
        0.04874927178025246,
        -0.9257135391235352,
        0.13140559196472168
      ],
      "scale": [
        0.9999998807907104,
        0.9999996423721313,
        0.9999998807907104
      ],
      "translation": [
        0.9843526482582092,
        2.7038936614990234,
        0.20813903212547302
      ]
    },
    {
      "children": [
        62
      ],
      "name": "Left_arm_72",
      "rotation": [
        0.02442842535674572,
        0.35598045587539673,
        -0.022442013025283813,
        0.9339044690132141
      ],
      "scale": [
        1.0000001192092896,
        1.0000001192092896,
        1.0
      ],
      "translation": [
        0.3634187877178192,
        1.0631102323532104,
        0.30164027214050293
      ]
    },
    {
      "children": [
        63,
        67,
        71,
        75,
        79
      ],
      "name": "left_hand_71",
      "rotation": [
        0.032525088638067245,
        -0.0016365464543923736,
        0.013654178008437157,
        0.9993763566017151
      ],
      "scale": [
        1.0000001192092896,
        1.0000001192092896,
        1.0
      ],
      "translation": [
        1.2714707509076106e-08,
        1.9401296377182007,
        -1.6348851161751554e-08
      ]
    },
    {
      "children": [
        64
      ],
      "name": "Left_index_1_55",
      "rotation": [
        0.14640216529369354,
        -0.014752293936908245,
        -0.007884504273533821,
        0.9890837669372559
      ],
      "scale": [
        1.0,
        0.9999998211860657,
        1.0000001192092896
      ],
      "translation": [
        4.713705870074136e-09,
        1.3511286973953247,
        -5.0956309394223354e-08
      ]
    },
    {
      "children": [
        65
      ],
      "name": "Left_index_2_54",
      "rotation": [
        -0.1297888308763504,
        -0.0012791689950972795,
        -0.06991904228925705,
        0.9890725612640381
      ],
      "scale": [
        1.0,
        1.0,
        1.0000001192092896
      ],
      "translation": [
        2.8779115979205017e-08,
        0.5567570924758911,
        7.483261121876694e-09
      ]
    },
    {
      "children": [
        66
      ],
      "name": "Left_index_3_53",
      "rotation": [
        -0.008735359646379948,
        -0.03034512884914875,
        -0.15176904201507568,
        0.9879114627838135
      ],
      "scale": [
        1.0000001192092896,
        1.0000003576278687,
        1.0000001192092896
      ],
      "translation": [
        1.5932476671309814e-08,
        0.11793678998947144,
        2.992177527971762e-08
      ]
    },
    {
      "name": "Left_index_4_52",
      "rotation": [
        -0.017333270981907845,
        -0.02960832044482231,
        -0.16686764359474182,
        0.9853822588920593
      ],
      "scale": [
        1.0,
        1.0,
        0.9999998807907104
      ],
      "translation": [
        -1.8773212673295347e-07,
        0.13883572816848755,
        -2.4940208120938223e-08
      ]
    },
    {
      "children": [
        68
      ],
      "name": "left_middle1_59",
      "rotation": [
        0.036748506128787994,
        -0.0034915274009108543,
        -0.011551005765795708,
        0.9992517828941345
      ],
      "scale": [
        0.9999998807907104,
        1.0000001192092896,
        1.0
      ],
      "translation": [
        7.899192411287004e-09,
        1.3511289358139038,
        1.3441503909916719e-08
      ]
    },
    {
      "children": [
        69
      ],
      "name": "left_middle2_58",
      "rotation": [
        -0.04986196383833885,
        0.0015983276534825563,
        -0.05176214501261711,
        0.9974126219749451
      ],
      "scale": [
        1.0,
        1.0,
        1.0000001192092896
      ],
      "translation": [
        -2.0771820175014e-07,
        0.5555737614631653,
        -1.443190544847539e-08
      ]
    },
    {
      "children": [
        70
      ],
      "name": "left_middle3_57",
      "rotation": [
        -0.024460799992084503,
        0.0036255118902772665,
        -0.1326555460691452,
        0.9908537268638611
      ],
      "scale": [
        1.0,
        0.9999999403953552,
        1.0000001192092896
      ],
      "translation": [
        1.785879248927813e-07,
        0.12527044117450714,
        -2.6914875661532278e-08
      ]
    },
    {
      "name": "left_middle4_56",
      "rotation": [
        -0.0021056344266980886,
        0.0001910670252982527,
        -0.20971381664276123,
        0.9777605533599854
      ],
      "scale": [
        1.000000238418579,
        1.0000001192092896,
        1.0000001192092896
      ],
      "translation": [
        1.8483805774849316e-07,
        0.15408894419670105,
        1.7921909289952964e-08
      ]
    },
    {
      "children": [
        72
      ],
      "name": "left_ring1_63",
      "rotation": [
        -0.07532529532909393,
        0.008032253943383694,
        0.001157023711130023,
        0.9971259832382202
      ],
      "scale": [
        0.9999999403953552,
        1.0,
        0.9999999403953552
      ],
      "translation": [
        1.2336876409335673e-07,
        1.3511288166046143,
        -4.874368997320744e-08
      ]
    },
    {
      "children": [
        73
      ],
      "name": "left_ring2_62",
      "rotation": [
        0.00906436238437891,
        0.008436880074441433,
        -0.08224339038133621,
        0.9965353608131409
      ],
      "scale": [
        1.0,
        1.000000238418579,
        1.0
      ],
      "translation": [
        5.593479812660007e-08,
        0.5257369875907898,
        -6.92340051955398e-08
      ]
    },
    {
      "children": [
        74
      ],
      "name": "left_ring3_61",
      "rotation": [
        -0.012100160121917725,
        0.043295323848724365,
        -0.205311581492424,
        0.9776636958122253
      ],
      "scale": [
        0.9999999403953552,
        1.0,
        0.9999998807907104
      ],
      "translation": [
        1.3093746531467332e-07,
        0.13821089267730713,
        1.6859416973602492e-08
      ]
    },
    {
      "name": "left_ring4_60",
      "rotation": [
        0.0012535146670415998,
        0.022849922999739647,
        -0.10278426110744476,
        0.9944403767585754
      ],
      "scale": [
        1.0,
        1.0,
        0.9999998211860657
      ],
      "translation": [
        -1.651401504432215e-08,
        0.1365586668252945,
        -1.5544321385618787e-08
      ]
    },
    {
      "children": [
        76
      ],
      "name": "left_pinky1_67",
      "rotation": [
        -0.19334404170513153,
        0.018892573192715645,
        -0.003250017063692212,
        0.9809437394142151
      ],
      "scale": [
        1.0,
        1.0000001192092896,
        0.9999999403953552
      ],
      "translation": [
        -1.1628627305526607e-07,
        1.3511288166046143,
        -3.872994014386677e-08
      ]
    },
    {
      "children": [
        77
      ],
      "name": "left_pinky2_66",
      "rotation": [
        0.05466916784644127,
        -0.007486126851290464,
        -0.06638499349355698,
        0.9962671995162964
      ],
      "scale": [
        1.0,
        1.0,
        1.0000001192092896
      ],
      "translation": [
        -2.227986684033567e-08,
        0.5260790586471558,
        -4.255484142845489e-08
      ]
    },
    {
      "children": [
        78
      ],
      "name": "left_pinky3_65",
      "rotation": [
        -0.01617765799164772,
        0.07442359626293182,
        -0.1604968011379242,
        0.9840936064720154
      ],
      "scale": [
        1.000000238418579,
        1.000000238418579,
        1.0000001192092896
      ],
      "translation": [
        -1.6910223621380283e-07,
        0.09293343126773834,
        -1.3141786325832072e-08
      ]
    },
    {
      "name": "left_pinky4_64",
      "rotation": [
        0.014831123873591423,
        0.09149637073278427,
        -0.1513335406780243,
        0.9841273427009583
      ],
      "scale": [
        0.9999999403953552,
        0.9999998211860657,
        0.9999999403953552
      ],
      "translation": [
        1.7825487930167583e-07,
        0.10817742347717285,
        1.6221825660522882e-08
      ]
    },
    {
      "children": [
        80
      ],
      "name": "left_hand.013_70",
      "rotation": [
        0.3995935022830963,
        0.010237525217235088,
        -0.11244817823171616,
        0.9097118973731995
      ],
      "scale": [
        1.0000001192092896,
        0.9999998807907104,
        0.9999999403953552
      ],
      "translation": [
        1.5514616791278968e-07,
        1.3511289358139038,
        4.4531827114724365e-09
      ]
    },
    {
      "children": [
        81
      ],
      "name": "left_hand.014_69",
      "rotation": [
        -0.22843068838119507,
        -0.01869511976838112,
        -0.04102929309010506,
        0.9725155830383301
      ],
      "scale": [
        1.0,
        0.9999998807907104,
        1.0
      ],
      "translation": [
        -3.036092834918236e-07,
        0.3290603756904602,
        1.4753052823834878e-07
      ]
    },
    {
      "name": "left_hand.015_68",
      "rotation": [
        -0.15728510916233063,
        -0.020072605460882187,
        -0.01602969877421856,
        0.9872190952301025
      ],
      "scale": [
        0.9999999403953552,
        1.0,
        1.0
      ],
      "translation": [
        1.0975838193871823e-07,
        0.15318122506141663,
        6.014940368004318e-08
      ]
    },
    {
      "children": [
        83,
        85
      ],
      "name": "arm_1.002_98",
      "rotation": [
        0.676226794719696,
        0.040280964225530624,
        0.7355650067329407,
        0.0062383259646594524
      ],
      "translation": [
        2.608534097671509,
        4.680332660675049,
        5.441818714141846
      ]
    },
    {
      "children": [
        84
      ],
      "matrix": [
        1.0,
        0.0,
        0.0,
        0.0,
        0.0,
        1.0,
        0.0,
        0.0,
        0.0,
        0.0,
        1.0,
        0.0,
        0.0,
        -2.1320786476135254,
        0.0,
        1.0
      ],
      "name": "Boy.003_75"
    },
    {
      "mesh": 2,
      "name": "Object_84"
    },
    {
      "children": [
        86
      ],
      "name": "root_97",
      "rotation": [
        -0.35129836201667786,
        0.04874927178025246,
        -0.9257135391235352,
        0.13140559196472168
      ],
      "scale": [
        0.9999998807907104,
        0.9999996423721313,
        0.9999998807907104
      ],
      "translation": [
        0.9843526482582092,
        2.7038936614990234,
        0.20813903212547302
      ]
    },
    {
      "children": [
        87
      ],
      "name": "Left_arm_96",
      "rotation": [
        0.02442842535674572,
        0.35598045587539673,
        -0.022442013025283813,
        0.9339044690132141
      ],
      "scale": [
        1.0000001192092896,
        1.0000001192092896,
        1.0
      ],
      "translation": [
        0.34341299533843994,
        0.3457220196723938,
        -0.1510971486568451
      ]
    },
    {
      "children": [
        88,
        92,
        96,
        100,
        104
      ],
      "name": "left_hand_95",
      "rotation": [
        0.032525088638067245,
        -0.0016365464543923736,
        0.013654178008437157,
        0.9993763566017151
      ],
      "scale": [
        1.0000001192092896,
        1.0000001192092896,
        1.0
      ],
      "translation": [
        -2.249713588753366e-07,
        1.9401296377182007,
        -1.905624102960246e-08
      ]
    },
    {
      "children": [
        89
      ],
      "name": "Left_index_1_79",
      "rotation": [
        0.14640216529369354,
        -0.014752293936908245,
        -0.007884504273533821,
        0.9890837669372559
      ],
      "scale": [
        1.0,
        0.9999998211860657,
        1.0000001192092896
      ],
      "translation": [
        -1.1402302391161356e-07,
        1.3511288166046143,
        8.903575654528595e-09
      ]
    },
    {
      "children": [
        90
      ],
      "name": "Left_index_2_78",
      "rotation": [
        -0.1297888308763504,
        -0.0012791689950972795,
        -0.06991904228925705,
        0.9890725612640381
      ],
      "scale": [
        1.0,
        1.0,
        1.0000001192092896
      ],
      "translation": [
        1.51014546645456e-07,
        0.5567572116851807,
        1.394192938874994e-08
      ]
    },
    {
      "children": [
        91
      ],
      "name": "Left_index_3_77",
      "rotation": [
        -0.008735359646379948,
        -0.03034512884914875,
        -0.15176904201507568,
        0.9879114627838135
      ],
      "scale": [
        1.0000001192092896,
        1.0000003576278687,
        1.0000001192092896
      ],
      "translation": [
        -9.449541238382153e-08,
        0.11793703585863113,
        4.189920854713591e-09
      ]
    },
    {
      "name": "Left_index_4_76",
      "rotation": [
        -0.017333270981907845,
        -0.02960832044482231,
        -0.16686764359474182,
        0.9853822588920593
      ],
      "scale": [
        1.0,
        1.0,
        0.9999998807907104
      ],
      "translation": [
        -6.86204586486383e-08,
        0.13883572816848755,
        -2.5329915942506886e-08
      ]
    },
    {
      "children": [
        93
      ],
      "name": "left_middle1_83",
      "rotation": [
        0.036748506128787994,
        -0.0034915274009108543,
        -0.011551005765795708,
        0.9992517828941345
      ],
      "scale": [
        0.9999998807907104,
        1.0000001192092896,
        1.0
      ],
      "translation": [
        1.2701543994353415e-07,
        1.3511289358139038,
        2.1602396316211525e-08
      ]
    },
    {
      "children": [
        94
      ],
      "name": "left_middle2_82",
      "rotation": [
        -0.04986196383833885,
        0.0015983276534825563,
        -0.05176214501261711,
        0.9974126219749451
      ],
      "scale": [
        1.0,
        1.0,
        1.0000001192092896
      ],
      "translation": [
        -2.0612995399460488e-07,
        0.5555736422538757,
        -1.0009920003994921e-08
      ]
    },
    {
      "children": [
        95
      ],
      "name": "left_middle3_81",
      "rotation": [
        -0.024460799992084503,
        0.0036255118902772665,
        -0.1326555460691452,
        0.9908537268638611
      ],
      "scale": [
        1.0,
        0.9999999403953552,
        1.0000001192092896
      ],
      "translation": [
        1.7669928809027624e-07,
        0.12527067959308624,
        -9.29878485322888e-09
      ]
    },
    {
      "name": "left_middle4_80",
      "rotation": [
        -0.0021056344266980886,
        0.0001910670252982527,
        -0.20971381664276123,
        0.9777605533599854
      ],
      "scale": [
        1.000000238418579,
        1.0000001192092896,
        1.0000001192092896
      ],
      "translation": [
        -5.183953533105523e-08,
        0.15408897399902344,
        3.2662672566630135e-08
      ]
    },
    {
      "children": [
        97
      ],
      "name": "left_ring1_87",
      "rotation": [
        -0.07532529532909393,
        0.008032253943383694,
        0.001157023711130023,
        0.9971259832382202
      ],
      "scale": [
        0.9999999403953552,
        1.0,
        0.9999999403953552
      ],
      "translation": [
        -1.1407402666918642e-07,
        1.3511288166046143,
        1.4037507156672291e-08
      ]
    },
    {
      "children": [
        98
      ],
      "name": "left_ring2_86",
      "rotation": [
        0.00906436238437891,
        0.008436880074441433,
        -0.08224339038133621,
        0.9965353608131409
      ],
      "scale": [
        1.0,
        1.000000238418579,
        1.0
      ],
      "translation": [
        1.8727925521488942e-07,
        0.5257372260093689,
        -2.5013205728896537e-08
      ]
    },
    {
      "children": [
        99
      ],
      "name": "left_ring3_85",
      "rotation": [
        -0.012100160121917725,
        0.043295323848724365,
        -0.205311581492424,
        0.9776636958122253
      ],
      "scale": [
        0.9999999403953552,
        1.0,
        0.9999998807907104
      ],
      "translation": [
        2.825365470471297e-07,
        0.13821111619472504,
        -8.859730726840098e-09
      ]
    },
    {
      "name": "left_ring4_84",
      "rotation": [
        0.0012535146670415998,
        0.022849922999739647,
        -0.10278426110744476,
        0.9944403767585754
      ],
      "scale": [
        1.0,
        1.0,
        0.9999998211860657
      ],
      "translation": [
        -5.832133354033431e-08,
        0.1365591436624527,
        -2.2756836415283033e-08
      ]
    },
    {
      "children": [
        101
      ],
      "name": "left_pinky1_91",
      "rotation": [
        -0.19334404170513153,
        0.018892573192715645,
        -0.003250017063692212,
        0.9809437394142151
      ],
      "scale": [
        1.0,
        1.0000001192092896,
        0.9999999403953552
      ],
      "translation": [
        5.1195563344208495e-09,
        1.3511288166046143,
        1.210719347000122e-08
      ]
    },
    {
      "children": [
        102
      ],
      "name": "left_pinky2_90",
      "rotation": [
        0.05466916784644127,
        -0.007486126851290464,
        -0.06638499349355698,
        0.9962671995162964
      ],
      "scale": [
        1.0,
        1.0,
        1.0000001192092896
      ],
      "translation": [
        -2.2117253806186454e-08,
        0.5260789394378662,
        -1.0294439078961659e-07
      ]
    },
    {
      "children": [
        103
      ],
      "name": "left_pinky3_89",
      "rotation": [
        -0.01617765799164772,
        0.07442359626293182,
        -0.1604968011379242,
        0.9840936064720154
      ],
      "scale": [
        1.000000238418579,
        1.000000238418579,
        1.0000001192092896
      ],
      "translation": [
        -1.6267659930235823e-07,
        0.09293355047702789,
        -4.700428490878039e-08
      ]
    },
    {
      "name": "left_pinky4_88",
      "rotation": [
        0.014831123873591423,
        0.09149637073278427,
        -0.1513335406780243,
        0.9841273427009583
      ],
      "scale": [
        0.9999999403953552,
        0.9999998211860657,
        0.9999999403953552
      ],
      "translation": [
        -5.138042880048488e-08,
        0.1081777885556221,
        2.4438460144438068e-08
      ]
    },
    {
      "children": [
        105
      ],
      "name": "left_hand.013_94",
      "rotation": [
        0.3995935022830963,
        0.010237525217235088,
        -0.11244817823171616,
        0.9097118973731995
      ],
      "scale": [
        1.0000001192092896,
        0.9999998807907104,
        0.9999999403953552
      ],
      "translation": [
        1.2553542205751e-07,
        1.3511288166046143,
        -4.138365028438784e-08
      ]
    },
    {
      "children": [
        106
      ],
      "name": "left_hand.014_93",
      "rotation": [
        -0.22843068838119507,
        -0.01869511976838112,
        -0.04102929309010506,
        0.9725155830383301
      ],
      "scale": [
        1.0,
        0.9999998807907104,
        1.0
      ],
      "translation": [
        -1.874888226893745e-07,
        0.32906031608581543,
        9.651929389065117e-08
      ]
    },
    {
      "name": "left_hand.015_92",
      "rotation": [
        -0.15728510916233063,
        -0.020072605460882187,
        -0.01602969877421856,
        0.9872190952301025
      ],
      "scale": [
        0.9999999403953552,
        1.0,
        1.0
      ],
      "translation": [
        1.0941740669068167e-07,
        0.15318110585212708,
        6.073863545452696e-08
      ]
    },
    {
      "children": [
        108
      ],
      "name": "Hand_99",
      "rotation": [
        -0.5744564533233643,
        0.21080520749092102,
        0.11589258164167404,
        0.7823873162269592
      ],
      "translation": [
        0.5391774773597717,
        2.2679948806762695,
        0.29067978262901306
      ]
    },
    {
      "mesh": 3,
      "name": "Object_108"
    },
    {
      "children": [
        110
      ],
      "name": "Hand.001_100",
      "rotation": [
        -0.14006178081035614,
        0.7669070363044739,
        0.6257858276367188,
        -0.025067396461963654
      ],
      "translation": [
        0.03316649794578552,
        2.3067078590393066,
        0.032390110194683075
      ]
    },
    {
      "mesh": 4,
      "name": "Object_110"
    },
    {
      "children": [
        112
      ],
      "name": "Hand.002_101",
      "rotation": [
        -0.22480784356594086,
        -0.9482965469360352,
        -0.22063398361206055,
        0.03893304988741875
      ],
      "translation": [
        -0.3397963047027588,
        2.5237064361572266,
        0.32053491473197937
      ]
    },
    {
      "mesh": 5,
      "name": "Object_112"
    },
    {
      "children": [
        114
      ],
      "name": "Hand.003_102",
      "rotation": [
        0.8696405291557312,
        -0.16836820542812347,
        -0.42666012048721313,
        0.1825888752937317
      ],
      "scale": [
        -1.0,
        -0.9999999403953552,
        -0.9999999403953552
      ],
      "translation": [
        -0.5302230715751648,
        2.819798469543457,
        0.10220199823379517
      ]
    },
    {
      "mesh": 6,
      "name": "Object_114"
    },
    {
      "children": [
        116
      ],
      "name": "Hand.004_103",
      "rotation": [
        0.503345251083374,
        -0.5829925537109375,
        -0.10022308677434921,
        0.6298559904098511
      ],
      "translation": [
        0.5614280700683594,
        2.5302517414093018,
        0.03583475202322006
      ]
    },
    {
      "mesh": 7,
      "name": "Object_116"
    },
    {
      "children": [
        118
      ],
      "name": "Hand.005_104",
      "rotation": [
        -0.78616863489151,
        -0.02808212675154209,
        0.01750226505100727,
        0.6171255707740784
      ],
      "translation": [
        -0.08592477440834045,
        2.4225924015045166,
        0.5313242673873901
      ]
    },
    {
      "mesh": 8,
      "name": "Object_118"
    },
    {
      "children": [
        120
      ],
      "name": "Hand.006_105",
      "rotation": [
        -0.043149132281541824,
        -0.4502961039543152,
        -0.8039765357971191,
        0.3859965205192566
      ],
      "translation": [
        -0.3893493711948395,
        2.538994073867798,
        0.1114540696144104
      ]
    },
    {
      "mesh": 9,
      "name": "Object_120"
    },
    {
      "children": [
        122
      ],
      "name": "Hand.007_106",
      "rotation": [
        0.4073845446109772,
        -0.023058276623487473,
        -0.9059927463531494,
        0.11262031644582748
      ],
      "scale": [
        -1.0,
        -1.0,
        -0.9999999403953552
      ],
      "translation": [
        0.15516917407512665,
        2.329470634460449,
        0.6248466372489929
      ]
    },
    {
      "mesh": 10,
      "name": "Object_122"
    },
    {
      "children": [
        124
      ],
      "name": "Hand.008_107",
      "rotation": [
        -0.43660667538642883,
        -0.13830359280109406,
        0.8842066526412964,
        0.09178972244262695
      ],
      "scale": [
        -0.9999999403953552,
        -1.0,
        -0.9999999403953552
      ],
      "translation": [
        -0.32660576701164246,
        2.4348294734954834,
        0.38293761014938354
      ]
    },
    {
      "mesh": 11,
      "name": "Object_124"
    },
    {
      "children": [
        126
      ],
      "name": "Hand.009_108",
      "rotation": [
        0.4243082106113434,
        -0.38225433230400085,
        -0.8065198659896851,
        0.15287210047245026
      ],
      "translation": [
        -0.26750844717025757,
        2.369716167449951,
        0.4819372892379761
      ]
    },
    {
      "mesh": 12,
      "name": "Object_126"
    },
    {
      "children": [
        128
      ],
      "name": "Hand.010_109",
      "rotation": [
        -0.40573325753211975,
        0.6534940600395203,
        0.5140413641929626,
        0.37958860397338867
      ],
      "translation": [
        0.19369852542877197,
        2.5260376930236816,
        0.26727697253227234
      ]
    },
    {
      "mesh": 13,
      "name": "Object_128"
    },
    {
      "children": [
        130
      ],
      "name": "Hand.011_110",
      "rotation": [
        -0.4334788918495178,
        0.034728966653347015,
        -0.804339587688446,
        0.40487998723983765
      ],
      "translation": [
        -0.27752959728240967,
        2.0450098514556885,
        0.0640733540058136
      ]
    },
    {
      "mesh": 14,
      "name": "Object_130"
    },
    {
      "children": [
        132
      ],
      "name": "Cube_111",
      "rotation": [
        -0.6135029196739197,
        0.0,
        0.0,
        0.7896924614906311
      ],
      "scale": [
        0.6766080856323242,
        0.10729452967643738,
        0.5706596970558167
      ],
      "translation": [
        0.0,
        6.45729923248291,
        -0.8803333044052124
      ]
    },
    {
      "mesh": 15,
      "name": "Object_132"
    },
    {
      "children": [
        134
      ],
      "name": "Cube.001_112",
      "rotation": [
        -0.6135029196739197,
        0.0,
        0.0,
        0.7896924614906311
      ],
      "scale": [
        0.6766080856323242,
        0.10729452967643738,
        0.5706596970558167
      ],
      "translation": [
        0.0,
        6.45729923248291,
        -0.8803333044052124
      ]
    },
    {
      "mesh": 16,
      "name": "Object_134"
    },
    {
      "children": [
        136
      ],
      "name": "Sphere_113",
      "scale": [
        0.9019016623497009,
        0.7046357989311218,
        0.9019016623497009
      ],
      "translation": [
        -0.043808646500110626,
        2.4562301635742188,
        0.2683279514312744
      ]
    },
    {
      "mesh": 17,
      "name": "Object_136"
    },
    {
      "children": [
        138
      ],
      "name": "Boy.005_114",
      "rotation": [
        0.5976256132125854,
        -0.07615093141794205,
        -0.7896162867546082,
        0.11640802770853043
      ],
      "translation": [
        -0.0699993371963501,
        4.311098098754883,
        -0.504243791103363
      ]
    },
    {
      "mesh": 18,
      "name": "Object_138"
    }
  ],
  "samplers": [
    {
      "magFilter": 9729,
      "minFilter": 9987,
      "wrapS": 10497,
      "wrapT": 10497
    }
  ],
  "scene": 0,
  "scenes": [
    {
      "name": "Sketchfab_Scene",
      "nodes": [
        0
      ]
    }
  ],
  "skins": [
    {
      "inverseBindMatrices": 76,
      "joints": [
        5,
        8,
        9,
        10,
        11,
        12,
        13,
        14,
        15,
        16,
        17,
        18,
        19,
        20,
        21,
        22,
        23,
        24,
        25,
        26,
        27,
        28,
        29,
        30,
        31,
        32,
        33,
        34,
        35,
        36,
        37,
        38,
        39,
        40,
        41,
        42,
        43,
        44,
        45,
        46,
        47,
        48,
        49,
        50,
        51,
        52,
        53,
        54,
        55,
        56
      ],
      "skeleton": 5
    }
  ],
  "textures": [
    {
      "sampler": 0,
      "source": 0
    }
  ]
}
